<svg version="1.1" viewBox="0.0 0.0 130.3490813648294 209.03149606299212" fill="none" stroke="none" stroke-linecap="square" stroke-miterlimit="10" xmlns:xlink="http://www.w3.org/1999/xlink" xmlns="http://www.w3.org/2000/svg"><clipPath id="p.0"><path d="m0 0l130.34908 0l0 209.0315l-130.34908 0l0 -209.0315z" clip-rule="nonzero"/></clipPath><g clip-path="url(#p.0)"><path fill="#000000" fill-opacity="0.0" d="m0 0l130.34908 0l0 209.0315l-130.34908 0z" fill-rule="evenodd"/><path fill="#000000" fill-opacity="0.0" d="m-11.673228 -0.001312336l153.95276 0l0 28.976377l-153.95276 0z" fill-rule="evenodd"/><path fill="#666666" d="m22.893108 15.891876l-10.343749 0l0 10.875l-3.25 0l0 -24.640625l15.265624 0l0 2.671875l-12.015624 0l0 8.4375l10.343749 0l0 2.65625zm8.468201 10.875l-3.125 0l0 -26.0l3.125 0l0 26.0zm12.613358 0.34375q-3.71875 0 -6.0625 -2.4375q-2.328125 -2.453125 -2.328125 -6.546875l0 -0.578125q0 -2.734375 1.03125 -4.875q1.046875 -2.140625 2.90625 -3.34375q1.875 -1.203125 4.0625 -1.203125q3.5625 0 5.546875 2.359375q1.984375 2.34375 1.984375 6.71875l0 1.296875l-12.40625 0q0.0625 2.71875 1.578125 4.390625q1.515625 1.65625 3.859375 1.65625q1.65625 0 2.796875 -0.671875q1.15625 -0.6875 2.015625 -1.796875l1.921875 1.484375q-2.3125 3.546875 -6.90625 3.546875zm-0.390625 -16.421875q-1.890625 0 -3.1875 1.390625q-1.28125 1.375 -1.578125 3.859375l9.171875 0l0 -0.234375q-0.140625 -2.390625 -1.296875 -3.703125q-1.140625 -1.3125 -3.109375 -1.3125zm17.297867 4.453125l4.062504 -6.6875l3.65625 0l-6.000004 9.0625l6.187504 9.25l-3.625 0l-4.234379 -6.859375l-4.234375 6.859375l-3.640625 0l6.1875 -9.25l-6.0 -9.0625l3.625 0l4.015625 6.6875zm14.425831 11.625l-3.125 0l0 -18.3125l3.125 0l0 18.3125zm-3.375 -23.171875q0 -0.75 0.453125 -1.28125q0.46875 -0.5312501 1.375 -0.5312501q0.921875 0 1.390625 0.5312501q0.484375 0.53125 0.484375 1.296875q0 0.75 -0.484375 1.265625q-0.46875 0.5 -1.390625 0.5q-0.90625 0 -1.375 -0.5q-0.453125 -0.515625 -0.453125 -1.28125zm23.894608 14.21875q0 4.203125 -1.9375 6.75q-1.921875 2.546875 -5.171875 2.546875q-3.46875 0 -5.375 -2.453125l-0.140625 2.109375l-2.875 0l0 -26.0l3.125 0l0 9.703125q1.890625 -2.34375 5.21875 -2.34375q3.34375 0 5.25 2.515625q1.90625 2.515625 1.90625 6.90625l0 0.265625zm-3.140625 -0.359375q0 -3.1875 -1.234375 -4.921875q-1.234375 -1.75 -3.546875 -1.75q-3.09375 0 -4.453125 2.875l0 7.921875q1.4375 2.875 4.484375 2.875q2.25 0 3.5 -1.734375q1.25 -1.75 1.25 -5.265625zm10.474625 9.3125l-3.125 0l0 -26.0l3.125 0l0 26.0zm12.613358 0.34375q-3.71875 0 -6.0625 -2.4375q-2.328125 -2.453125 -2.328125 -6.546875l0 -0.578125q0 -2.734375 1.03125 -4.875q1.046875 -2.140625 2.90625 -3.34375q1.875 -1.203125 4.0625 -1.203125q3.5625076 0 5.5468826 2.359375q1.984375 2.34375 1.984375 6.71875l0 1.296875l-12.406258 0q0.0625 2.71875 1.578125 4.390625q1.515625 1.65625 3.859375 1.65625q1.6562576 0 2.7968826 -0.671875q1.15625 -0.6875 2.015625 -1.796875l1.921875 1.484375q-2.3125 3.546875 -6.9062576 3.546875zm-0.390625 -16.421875q-1.890625 0 -3.1875 1.390625q-1.28125 1.375 -1.578125 3.859375l9.171883 0l0 -0.234375q-0.140625 -2.390625 -1.296875 -3.703125q-1.140625 -1.3125 -3.1093826 -1.3125z" fill-rule="nonzero"/><path fill="#000000" fill-opacity="0.0" d="m7.8858266 173.38583l114.83465 0l0 28.976364l-114.83465 0z" fill-rule="evenodd"/><path fill="#666666" d="m38.620083 190.18527l-5.78125 0l0 9.96875l-3.265625 0l0 -24.640625l8.15625 0q4.15625 0 6.390625 1.90625q2.25 1.890625 2.25 5.5q0 2.3125 -1.25 4.03125q-1.234375 1.703125 -3.453125 2.546875l5.796875 10.453125l0 0.203125l-3.484375 0l-5.359375 -9.96875zm-5.78125 -2.65625l4.984375 0q2.421875 0 3.84375 -1.25q1.4375 -1.25 1.4375 -3.359375q0 -2.28125 -1.359375 -3.5q-1.359375 -1.21875 -3.9375 -1.234375l-4.96875 0l0 9.34375zm20.994888 12.625l-3.125 0l0 -18.3125l3.125 0l0 18.3125zm-3.375 -23.171875q0 -0.75 0.453125 -1.28125q0.46875 -0.53125 1.375 -0.53125q0.921875 0 1.390625 0.53125q0.484375 0.53125 0.484375 1.296875q0 0.75 -0.484375 1.265625q-0.46875 0.5 -1.390625 0.5q-0.90625 0 -1.375 -0.5q-0.453125 -0.515625 -0.453125 -1.28125zm7.6446075 13.859375q0 -4.28125 1.96875 -6.796875q1.984375 -2.53125 5.250004 -2.53125q3.359375 0 5.234375 2.359375l0.15625 -2.03125l2.8593674 0l0 17.875q0 3.546875 -2.1093674 5.59375q-2.109375 2.046875 -5.65625 2.046875q-1.9843788 0 -3.8906288 -0.84375q-1.890625 -0.84375 -2.875 -2.3125l1.625 -1.875q2.0 2.484375 4.921879 2.484375q2.28125 0 3.546875 -1.296875q1.28125 -1.28125 1.28125 -3.609375l0 -1.578125q-1.875 2.171875 -5.125 2.171875q-3.2187538 0 -5.203129 -2.59375q-1.984375 -2.59375 -1.984375 -7.0625zm3.140625 0.359375q0 3.09375 1.265625 4.875q1.28125 1.765625 3.5625038 1.765625q2.96875 0 4.34375 -2.703125l0 -8.359375q-1.4375 -2.609375 -4.3125 -2.609375q-2.2812538 0 -3.5781288 1.78125q-1.28125 1.765625 -1.28125 5.25zm20.44337 8.953125l-3.125 0l0 -18.3125l3.125 0l0 18.3125zm-3.375 -23.171875q0 -0.75 0.453125 -1.28125q0.46875 -0.53125 1.375 -0.53125q0.921875 0 1.390625 0.53125q0.484375 0.53125 0.484375 1.296875q0 0.75 -0.484375 1.265625q-0.46875 0.5 -1.390625 0.5q-0.90625 0 -1.375 -0.5q-0.453125 -0.515625 -0.453125 -1.28125zm7.6289825 13.859375q0 -4.203125 1.984375 -6.765625q2.0 -2.5625 5.234375 -2.5625q3.21875 0 5.09375 2.1875l0 -9.546875l3.140625 0l0 26.0l-2.875 0l-0.15625 -1.96875q-1.875 2.3125 -5.234375 2.3125q-3.171875 0 -5.1875 -2.609375q-2.0 -2.609375 -2.0 -6.796875l0 -0.25zm3.125 0.359375q0 3.109375 1.28125 4.875q1.296875 1.765625 3.5625 1.765625q2.984375 0 4.34375 -2.671875l0 -8.421875q-1.40625 -2.578125 -4.3125 -2.578125q-2.296875 0 -3.59375 1.78125q-1.28125 1.765625 -1.28125 5.25z" fill-rule="nonzero"/><path fill="#666666" d="m50.8937 67.14138l14.409447 -32.02327l14.409454 32.02327l-7.204727 0l0 100.102715l-14.409447 0l0 -100.102715z" fill-rule="evenodd"/></g></svg>